<svg xmlns="http://www.w3.org/2000/svg" viewBox="0 0 256 256" fill="none"><title>Amur Tiger</title>
    <path d="M70 98 88 52l24 28H70ZM186 98l-18-46-24 28h42Z" fill="#111827"/>
    <circle cx="128" cy="138" r="72" fill="#f59e0b"/>
    <ellipse cx="128" cy="162" rx="30" ry="20" fill="#fde68a"/>
    <circle cx="104" cy="132" r="6" fill="#111827"/>
    <circle cx="152" cy="132" r="6" fill="#111827"/>
    <ellipse cx="128" cy="156" rx="8" ry="6" fill="#111827"/>
    <path d="M88 102 104 120M168 102l-16 18M76 126l22 14M180 126l-22 14M84 154h22M150 154h22" stroke="#111827" stroke-width="10" stroke-linecap="round"/>
    <path d="M104 178c14 8 34 8 48 0" stroke="#111827" stroke-width="8" stroke-linecap="round"/>
  </svg>
