<svg xmlns="http://www.w3.org/2000/svg" viewBox="0 0 256 256" fill="none"><title>Red Panda</title>
    <path d="M78 98 98 60l26 26 4 88H72c-4-28-2-50 6-76Z" fill="#ea580c"/>
    <path d="m178 98-20-38-26 26-4 88h56c4-28 2-50-6-76Z" fill="#ea580c"/>
    <circle cx="128" cy="130" r="72" fill="#ea580c"/>
    <path d="M94 118c10-12 22-18 34-20M162 118c-10-12-22-18-34-20" stroke="#fef3c7" stroke-width="10" stroke-linecap="round"/>
    <ellipse cx="128" cy="152" rx="34" ry="24" fill="#7c2d12"/>
    <circle cx="102" cy="120" r="6" fill="#111827"/><circle cx="154" cy="120" r="6" fill="#111827"/>
    <circle cx="128" cy="142" r="9" fill="#111827"/>
  </svg>
