<svg xmlns="http://www.w3.org/2000/svg" viewBox="0 0 256 256" fill="none"><title>Saltwater Crocodile</title>
    <path d="M26 154c18-28 54-46 104-50 14-16 32-26 56-26 20 0 36 8 44 20-18 2-30 10-40 24 18 6 28 16 34 30-16 8-34 10-54 8-18 18-42 30-70 34-40 4-90-10-74-40Z" fill="#3f6212"/>
    <path d="M152 118h52" stroke="#bef264" stroke-width="8" stroke-linecap="round"/>
    <circle cx="176" cy="96" r="6" fill="#1a2e05"/>
    <path d="M76 170c18 8 42 8 62 0" stroke="#1a2e05" stroke-width="8" stroke-linecap="round"/>
  </svg>
